<svg xmlns="http://www.w3.org/2000/svg" width="48" height="48" viewBox="0 0 48 48" fill="none">
  <rect width="48" height="48" rx="8" fill="#EFF6FF" />
  <path d="M34.12 23.14C35.3 21.74 36 19.95 36 18C36 14.28 32.72 11 29 11V15C30.65 15 32 16.35 32 18C32 19.65 30.65 21 29 21H25V15H21V21H17V15H13V33H17V27H21V33H25V27H29C32.72 27 36 23.72 36 20C36 18.05 35.3 16.26 34.12 14.86C35.3 16.26 36 18.05 36 20C36 23.72 32.72 27 29 27H25V33H21V27H17V33H13V15H17V21H21V15H25V21H29C30.65 21 32 19.65 32 18C32 16.35 30.65 15 29 15V11C32.72 11 36 14.28 36 18C36 19.95 35.3 21.74 34.12 23.14Z" fill="#0A4021"/>
</svg> 